<svg version="1.1" id="Layer_1" xmlns="http://www.w3.org/2000/svg" xmlns:xlink="http://www.w3.org/1999/xlink" x="0px" y="0px" style="enable-background:new 0 0 500 500;" xml:space="preserve" viewBox="144.56 142.2 210.88 215.61"> <style type="text/css"> 	.st0{fill:#ED312D;} 	.st1{fill:#259E49;} 	.st2{fill:#FFFFFF;} </style>   <g> 	<g> 		<path class="st0" d="M355.42,259.44c1.18,47.14-48.73,98.35-105.41,98.37c-56.93,0.02-107.06-51.61-105.41-98.37 			c0.79-22.36,13.68-51.37,34.49-57c26.05-7.04,41.52,28.78,75.78,25.26c30.57-3.14,37.88-33.67,60.24-30.6 			C336.76,200.07,354.74,232.13,355.42,259.44z"></path>     <g> 			<path class="st1" d="M247.89,212.9c0,0,7.83-39.91,31.31-60.63c5.01-4.42,10.73-7.97,17.24-10.07c0,0-33.12,4.27-61.7,36.56 				c0,0-7.14-12.09-16.89-10.53c0,0-10.72,0.71-14.29-4.84c0,0,12.34,14.8,12.34,21.2C215.9,184.59,216.23,199.24,247.89,212.9z"></path>       <ellipse class="st2" cx="220.08" cy="172.4" rx="1.75" ry="1.53"></ellipse> 		</g> 	</g> </g> </svg>
